<svg xmlns="http://www.w3.org/2000/svg" width="24" height="24" viewBox="0 0 24 24" fill="none" stroke="currentColor" stroke-width="2.5" stroke-linecap="round" stroke-linejoin="round"><path d="M9 8a3 3 0 1 0 6 0a3 3 0 1 0 -6 0Z" fill="currentColor" opacity="0.2" stroke="none"/><path d="M7 8A1.5 1.5 0 0 1 8.5 6.5H15.5A1.5 1.5 0 0 1 17 8V8A1.5 1.5 0 0 1 15.5 9.5H8.5A1.5 1.5 0 0 1 7 8Z" fill="currentColor" opacity="0.2" stroke="none"/><path d="M9 8a3 3 0 1 0 6 0a3 3 0 1 0 -6 0Z"/><path d="M6 21A6 6 0 0 1 18 21"/><path d="M7 8A1.5 1.5 0 0 1 8.5 6.5H15.5A1.5 1.5 0 0 1 17 8V8A1.5 1.5 0 0 1 15.5 9.5H8.5A1.5 1.5 0 0 1 7 8Z"/></svg>
